<svg width="850" height="560" viewBox="0 0 850 560" fill="none" xmlns="http://www.w3.org/2000/svg">
<ellipse cx="425" cy="537" rx="425" ry="23" fill="#131644"/>
<path d="M712.221 357.819L705.161 371.941L703.879 374.197H631.078V366.169H699.073L705.161 354.292L712.221 357.819Z" fill="#93957F"/>
<path d="M557.315 354.292L563.083 366.169H631.078V374.197H560.84H558.277L557.315 371.941L549.935 357.819L557.315 354.292Z" fill="#93957F"/>
<path d="M637.487 397.298V455.72H624.669V397.298H637.487Z" fill="#C5C6A5"/>
<path d="M637.487 455.72V535.971H624.669V455.72H637.487Z" fill="#93957F"/>
<path d="M639.1 455.72V481.077H623.057V455.72H639.1Z" fill="#676757"/>
<path d="M639.1 418.807V444.165H623.057V418.807H639.1Z" fill="#676757"/>
<path d="M596.12 477.549L621.774 496.493H640.691L666.356 477.549L671.163 483.975L644.227 503.548L643.265 504.51H641.983H620.493H619.212L618.25 503.548L591.302 483.975L596.12 477.549Z" fill="#93957F"/>
<path d="M623.057 517.029C623.057 512.539 626.592 509.009 631.078 509.009C635.564 509.009 639.1 512.539 639.1 517.029V535.972C639.1 540.462 635.564 544 631.078 544C626.592 544 623.057 540.462 623.057 535.972V517.029Z" fill="#403C31"/>
<path d="M612.472 506.125C609.268 506.125 606.704 503.548 606.704 500.341C606.704 497.134 609.268 494.889 612.472 494.889H649.993C652.888 494.889 655.451 497.134 655.451 500.341C655.451 503.548 652.888 506.125 649.993 506.125H612.472Z" fill="#676757"/>
<path d="M714.783 537.895L641.023 461.504H631.078V450.268H643.265H645.508L647.11 451.872L722.805 530.199L714.783 537.895Z" fill="#C5C6A5"/>
<path d="M615.676 427.477H629.155V435.506H615.676V427.477Z" fill="#676757"/>
<path d="M619.533 418.807V444.165H611.51V418.807H619.533Z" fill="#93957F"/>
<path d="M695.537 521.529C692.654 518.322 692.654 513.179 695.869 510.294C699.073 507.086 704.2 507.086 707.082 510.294L724.728 528.584C727.611 531.801 727.611 536.934 724.397 539.819C721.193 543.037 716.066 542.717 713.183 539.498L695.537 521.529Z" fill="#403C31"/>
<path d="M539.35 530.199L615.034 451.872L616.648 450.268H631.078V461.504H621.455L547.373 537.895L539.35 530.199Z" fill="#C5C6A5"/>
<path d="M555.062 510.294C558.277 507.086 563.404 507.086 566.619 510.294C569.822 513.179 569.822 518.322 566.619 521.529L549.294 539.498C546.091 542.717 540.958 543.037 537.748 539.819C534.865 536.934 534.544 531.801 537.748 528.584L555.062 510.294Z" fill="#403C31"/>
<path d="M639.1 364.245V406.288H623.057V364.245H639.1Z" fill="#676757"/>
<path fill-rule="evenodd" clip-rule="evenodd" d="M631.078 391.845C637.178 391.845 641.983 387.036 641.983 380.932C641.983 375.159 637.178 370.017 631.078 370.017C625.31 370.017 620.173 375.159 620.173 380.932C620.173 387.036 625.31 391.845 631.078 391.845Z" fill="#93957F"/>
<path d="M631.078 384.78C633.321 384.78 634.923 383.176 634.923 380.932C634.923 379.007 633.321 377.404 631.078 377.404C629.155 377.404 627.543 379.007 627.543 380.932C627.543 383.176 629.155 384.78 631.078 384.78Z" fill="#676757"/>
<path d="M713.823 270.833C713.823 269.23 714.783 268.268 716.387 268.268C717.668 268.268 718.628 269.23 718.628 270.833V296.191C718.628 297.473 717.668 298.436 716.387 298.436C714.783 298.436 713.823 297.473 713.823 296.191V270.833Z" fill="#93957F"/>
<path d="M710.607 296.191C710.607 292.983 713.183 290.418 716.387 290.418C719.269 290.418 721.834 292.983 721.834 296.191V319.944C721.834 323.152 719.269 325.717 716.387 325.717C713.183 325.717 710.607 323.152 710.607 319.944V296.191Z" fill="#C5C6A5"/>
<path d="M713.823 319.944C713.823 318.662 714.783 317.699 716.387 317.699C717.668 317.699 718.628 318.662 718.628 319.944V345.301C718.628 346.905 717.668 347.867 716.387 347.867C714.783 347.867 713.823 346.905 713.823 345.301V319.944Z" fill="#93957F"/>
<path d="M543.841 270.833C543.841 269.23 544.803 268.268 546.091 268.268C547.373 268.268 548.654 269.23 548.654 270.833V296.191C548.654 297.473 547.373 298.436 546.091 298.436C544.803 298.436 543.841 297.473 543.841 296.191V270.833Z" fill="#93957F"/>
<path d="M540.637 296.191C540.637 292.983 542.879 290.418 546.091 290.418C549.294 290.418 551.858 292.983 551.858 296.191V319.944C551.858 323.152 549.294 325.717 546.091 325.717C542.879 325.717 540.637 323.152 540.637 319.944V296.191Z" fill="#C5C6A5"/>
<path d="M543.841 319.944C543.841 318.662 544.803 317.699 546.091 317.699C547.373 317.699 548.654 318.662 548.654 319.944V345.301C548.654 346.905 547.373 347.867 546.091 347.867C544.803 347.867 543.841 346.905 543.841 345.301V319.944Z" fill="#93957F"/>
<path fill-rule="evenodd" clip-rule="evenodd" d="M546.091 345.301H716.387V270.833H546.091V345.301Z" fill="#EC1D26"/>
<path fill-rule="evenodd" clip-rule="evenodd" d="M546.091 345.301H631.078V270.833H546.091V345.301Z" fill="#A81D26"/>
<path fill-rule="evenodd" clip-rule="evenodd" d="M698.741 288.482C698.741 286.238 700.355 284.312 702.597 284.312C704.84 284.312 706.762 286.238 706.762 288.482V329.255C706.762 331.5 704.84 333.424 702.597 333.424C700.355 333.424 698.741 331.5 698.741 329.255V288.482Z" fill="#EF373C"/>
<path d="M665.717 270.833C665.717 269.23 666.997 268.268 668.28 268.268C669.561 268.268 670.521 269.23 670.521 270.833V296.191C670.521 297.473 669.561 298.436 668.28 298.436C666.997 298.436 665.717 297.473 665.717 296.191V270.833Z" fill="#93957F"/>
<path d="M662.5 296.191C662.5 292.983 665.065 290.418 668.28 290.418C671.484 290.418 673.727 292.983 673.727 296.191V319.944C673.727 323.152 671.484 325.717 668.28 325.717C665.065 325.717 662.5 323.152 662.5 319.944V296.191Z" fill="#C5C6A5"/>
<path d="M665.717 319.944C665.717 318.662 666.997 317.699 668.28 317.699C669.561 317.699 670.521 318.662 670.521 319.944V345.301C670.521 346.905 669.561 347.867 668.28 347.867C666.997 347.867 665.717 346.905 665.717 345.301V319.944Z" fill="#93957F"/>
<path d="M591.635 270.833C591.635 269.23 592.583 268.268 594.197 268.268C595.479 268.268 596.44 269.23 596.44 270.833V296.191C596.44 297.473 595.479 298.436 594.197 298.436C592.583 298.436 591.635 297.473 591.635 296.191V270.833Z" fill="#93957F"/>
<path d="M588.429 296.191C588.429 292.983 590.993 290.418 594.197 290.418C597.081 290.418 599.645 292.983 599.645 296.191V319.944C599.645 323.152 597.081 325.717 594.197 325.717C590.993 325.717 588.429 323.152 588.429 319.944V296.191Z" fill="#C5C6A5"/>
<path d="M591.635 319.944C591.635 318.662 592.583 317.699 594.197 317.699C595.479 317.699 596.44 318.662 596.44 319.944V345.301C596.44 346.905 595.479 347.867 594.197 347.867C592.583 347.867 591.635 346.905 591.635 345.301V319.944Z" fill="#93957F"/>
<path d="M539.671 357.819H722.474V345.301H539.671V357.819Z" fill="#C5C6A5"/>
<path d="M546.091 256.711H716.387L706.122 249.325H556.344L546.091 256.711Z" fill="#93957F"/>
<path d="M539.671 270.833H722.474V256.711H539.671V270.833Z" fill="#C5C6A5"/>
<path d="M751.023 170.677C751.023 172.933 749.102 174.857 747.178 174.857C744.925 174.857 743.003 172.933 743.003 170.677L743.323 123.169C743.643 120.935 745.257 119.32 747.488 119.32C749.742 119.32 751.344 121.246 751.344 123.169L751.023 170.677Z" fill="#C5C6A5"/>
<path d="M753.588 219.798V398.592H740.761V219.798H753.588Z" fill="#93957F"/>
<path d="M753.588 398.592V535.971H740.761V398.592H753.588Z" fill="#676757"/>
<path d="M755.189 398.592V423.95H739.158V398.592H755.189Z" fill="#403C31"/>
<path d="M755.189 166.829V245.156H739.158V166.829H755.189Z" fill="#676757"/>
<path d="M755.189 284.955V309.991H739.158V284.955H755.189Z" fill="#676757"/>
<path d="M719.911 439.674L740.761 480.757H753.268L774.437 439.674L781.498 443.522L759.354 486.539L758.406 488.786H755.842H738.196H735.954L734.671 486.539L712.53 443.522L719.911 439.674Z" fill="#93957F"/>
<path d="M739.158 517.029C739.158 512.539 742.681 509.009 747.178 509.009C751.344 509.009 755.189 512.539 755.189 517.029V535.972C755.189 540.462 751.344 544 747.178 544C742.681 544 739.158 540.462 739.158 535.972V517.029Z" fill="#403C31"/>
<path d="M669.882 530.519L729.534 396.336L730.816 393.129H747.178V404.364H738.196L680.146 535.008L669.882 530.519Z" fill="#93957F"/>
<path d="M731.777 479.152H762.251V490.389H731.777V479.152Z" fill="#676757"/>
<path d="M813.882 535.008L755.842 404.364H747.178V393.129H759.686H763.21L764.814 396.336L824.146 530.519L813.882 535.008Z" fill="#93957F"/>
<path d="M731.456 293.625H745.257V301.642H731.456V293.625Z" fill="#676757"/>
<path d="M735.622 284.955V309.991H727.611V284.955H735.622Z" fill="#93957F"/>
<path d="M801.374 512.859C799.771 509.009 801.694 504.189 805.539 502.265C809.717 500.662 814.202 502.585 816.123 506.444L826.389 529.545C827.99 533.726 826.389 538.215 822.224 540.14C818.378 541.754 813.561 540.14 811.637 535.971L801.374 512.859Z" fill="#403C31"/>
<path d="M677.902 506.444C679.826 502.585 684.311 500.662 688.489 502.265C692.654 504.189 694.254 509.009 692.654 512.859L682.388 535.971C680.466 540.14 675.981 541.754 671.804 540.14C667.64 538.215 666.036 533.726 667.64 529.545L677.902 506.444Z" fill="#403C31"/>
<path d="M747.178 191.224H728.253L734.34 178.384H759.686L765.776 191.224H747.178Z" fill="#CDA44B"/>
<path d="M747.178 219.798C836.973 219.798 833.128 202.779 747.178 202.779C660.91 202.779 657.374 219.798 747.178 219.798Z" fill="#A95F1E"/>
<path d="M747.178 216.901H728.253L734.34 229.741H759.686L765.776 216.901H747.178Z" fill="#A95F1E"/>
<path d="M747.178 206.307C835.05 206.307 831.525 189.3 747.178 189.3C662.5 189.3 658.976 206.307 747.178 206.307Z" fill="#C58B24"/>
<path d="M131.726 270.833C131.726 269.23 133.013 268.268 134.294 268.268C135.575 268.268 136.537 269.23 136.537 270.833V296.191C136.537 297.473 135.575 298.436 134.294 298.436C133.013 298.436 131.726 297.473 131.726 296.191V270.833Z" fill="#93957F"/>
<path d="M128.522 296.191C128.522 292.983 131.085 290.418 134.294 290.418C137.178 290.418 139.747 292.983 139.747 296.191V319.944C139.747 323.152 137.178 325.717 134.294 325.717C131.085 325.717 128.522 323.152 128.522 319.944V296.191Z" fill="#C5C6A5"/>
<path d="M302.027 270.833C302.027 269.23 302.988 268.268 304.27 268.268C305.552 268.268 306.838 269.23 306.838 270.833V296.191C306.838 297.473 305.552 298.436 304.27 298.436C302.988 298.436 302.027 297.473 302.027 296.191V270.833Z" fill="#93957F"/>
<path d="M298.816 296.191C298.816 292.983 301.386 290.418 304.27 290.418C307.479 290.418 310.043 292.983 310.043 296.191V319.944C310.043 323.152 307.479 325.717 304.27 325.717C301.386 325.717 298.816 323.152 298.816 319.944V296.191Z" fill="#C5C6A5"/>
<path d="M139.747 389.6C139.747 392.808 137.178 395.054 134.294 395.054C131.085 395.054 128.522 392.808 128.522 389.6V365.526C128.522 362.641 131.085 360.064 134.294 360.064C137.178 360.064 139.747 362.641 139.747 365.526V389.6Z" fill="#C5C6A5"/>
<path d="M136.537 414.959C136.537 416.24 135.575 417.525 134.294 417.525C133.013 417.525 131.726 416.24 131.726 414.959V389.6C131.726 388.319 133.013 387.036 134.294 387.036C135.575 387.036 136.537 388.319 136.537 389.6V414.959Z" fill="#93957F"/>
<path d="M310.043 389.6C310.043 392.808 307.479 395.054 304.27 395.054C301.386 395.054 298.816 392.808 298.816 389.6V365.526C298.816 362.641 301.386 360.064 304.27 360.064C307.479 360.064 310.043 362.641 310.043 365.526V389.6Z" fill="#C5C6A5"/>
<path d="M306.838 414.959C306.838 416.24 305.552 417.525 304.27 417.525C302.988 417.525 302.027 416.24 302.027 414.959V389.6C302.027 388.319 302.988 387.036 304.27 387.036C305.552 387.036 306.838 388.319 306.838 389.6V414.959Z" fill="#93957F"/>
<path fill-rule="evenodd" clip-rule="evenodd" d="M134.294 414.959H304.27V270.833H134.294V414.959Z" fill="#EC1D26"/>
<path fill-rule="evenodd" clip-rule="evenodd" d="M219.282 414.959H304.27V270.833H219.282V414.959Z" fill="#A81D26"/>
<path fill-rule="evenodd" clip-rule="evenodd" d="M151.614 288.482C151.614 286.238 150.007 284.312 147.762 284.312C145.52 284.312 143.592 286.238 143.592 288.482V401.478C143.592 403.723 145.52 405.327 147.762 405.327C150.007 405.327 151.614 403.723 151.614 401.478V288.482Z" fill="#EF373C"/>
<path d="M179.833 270.833C179.833 269.23 180.799 268.268 182.081 268.268C183.362 268.268 184.643 269.23 184.643 270.833V296.191C184.643 297.473 183.362 298.436 182.081 298.436C180.799 298.436 179.833 297.473 179.833 296.191V270.833Z" fill="#93957F"/>
<path d="M176.628 296.191C176.628 292.983 179.192 290.418 182.081 290.418C185.285 290.418 187.854 292.983 187.854 296.191V319.944C187.854 323.152 185.285 325.717 182.081 325.717C179.192 325.717 176.628 323.152 176.628 319.944V296.191Z" fill="#C5C6A5"/>
<path d="M253.92 270.833C253.92 269.23 254.882 268.268 256.483 268.268C257.765 268.268 258.732 269.23 258.732 270.833V296.191C258.732 297.473 257.765 298.436 256.483 298.436C254.882 298.436 253.92 297.473 253.92 296.191V270.833Z" fill="#93957F"/>
<path d="M250.709 296.191C250.709 292.983 253.279 290.418 256.483 290.418C259.372 290.418 261.936 292.983 261.936 296.191V319.944C261.936 323.152 259.372 325.717 256.483 325.717C253.279 325.717 250.709 323.152 250.709 319.944V296.191Z" fill="#C5C6A5"/>
<path d="M304.27 256.711H134.294L144.232 249.325H294.332L304.27 256.711Z" fill="#93957F"/>
<path d="M127.88 270.833H310.682V256.711H127.88V270.833Z" fill="#C5C6A5"/>
<path d="M187.854 389.6C187.854 392.808 185.285 395.054 182.081 395.054C179.192 395.054 176.628 392.808 176.628 389.6V365.526C176.628 362.641 179.192 360.064 182.081 360.064C185.285 360.064 187.854 362.641 187.854 365.526V389.6Z" fill="#C5C6A5"/>
<path d="M184.643 414.959C184.643 416.24 183.362 417.525 182.081 417.525C180.799 417.525 179.833 416.24 179.833 414.959V389.6C179.833 388.319 180.799 387.036 182.081 387.036C183.362 387.036 184.643 388.319 184.643 389.6V414.959Z" fill="#93957F"/>
<path d="M261.936 389.6C261.936 392.808 259.372 395.054 256.483 395.054C253.279 395.054 250.709 392.808 250.709 389.6V365.526C250.709 362.641 253.279 360.064 256.483 360.064C259.372 360.064 261.936 362.641 261.936 365.526V389.6Z" fill="#C5C6A5"/>
<path d="M258.732 414.959C258.732 416.24 257.765 417.525 256.483 417.525C254.882 417.525 253.92 416.24 253.92 414.959V389.6C253.92 388.319 254.882 387.036 256.483 387.036C257.765 387.036 258.732 388.319 258.732 389.6V414.959Z" fill="#93957F"/>
<path d="M127.88 427.477H310.682V414.959H127.88V427.477Z" fill="#C5C6A5"/>
<path d="M125.633 335.028V425.232C125.633 442.56 115.052 451.551 104.788 460.863C96.1252 467.918 87.4686 475.304 87.4686 487.823V535.971H76.2432V487.823C76.2432 470.494 86.828 461.183 97.4139 452.192C105.75 444.804 114.412 437.43 114.412 425.232V335.028H125.633Z" fill="#93957F"/>
<path d="M74 510.934C74 506.444 77.5243 502.905 82.0171 502.905C86.5072 502.905 90.0321 506.444 90.0321 510.934V535.972C90.0321 540.462 86.5072 544 82.0171 544C77.5243 544 74 540.462 74 535.972V510.934Z" fill="#403C31"/>
<path d="M134.294 355.574H104.468V339.528H134.294V355.574Z" fill="#676757"/>
<path d="M108.634 335.028V360.384H100.617V335.028H108.634Z" fill="#93957F"/>
<path d="M312.932 335.028V425.232C312.932 442.56 323.51 451.551 333.776 460.863C342.438 467.918 351.095 475.304 351.095 487.823V535.971H362.32V487.823C362.32 470.494 351.736 461.183 341.15 452.192C332.815 444.804 324.153 437.43 324.153 425.232V335.028H312.932Z" fill="#93957F"/>
<path d="M364.563 510.934C364.563 506.444 361.037 502.905 356.547 502.905C352.056 502.905 348.531 506.444 348.531 510.934V535.972C348.531 540.462 352.056 544 356.547 544C361.037 544 364.563 540.462 364.563 535.972V510.934Z" fill="#403C31"/>
<path d="M304.27 355.574H334.096V339.528H304.27V355.574Z" fill="#676757"/>
<path d="M329.93 335.028V360.384H337.946V335.028H329.93Z" fill="#93957F"/>
<path d="M647.762 59.6275C783.419 59.6275 777.641 10.1845 647.762 10.1845C518.186 10.1845 512.414 59.6275 647.762 59.6275Z" fill="#C58B24"/>
<path d="M617.929 58.6541C626.901 59.2962 636.845 59.6275 647.762 59.6275V36.8245L617.929 58.6541ZM647.762 10.1845V36.8245L682.388 11.4678C672.136 10.5055 660.578 10.1845 647.762 10.1845Z" fill="#A95F1E"/>
<path d="M556.984 24.638C550.576 28.4861 547.694 32.6562 548.654 36.8245H647.762L556.984 24.638ZM747.178 36.8245H647.762L733.389 48.3912C741.72 44.853 746.207 41.0049 747.178 36.8245Z" fill="#CDA44B"/>
<path d="M639.741 35.5421C639.741 31.0528 643.265 27.5136 647.762 27.5136C652.248 27.5136 655.772 31.0528 655.772 35.5421V37.7979C655.772 42.2872 652.248 45.8162 647.762 45.8162C643.265 45.8162 639.741 42.2872 639.741 37.7979V35.5421Z" fill="#A95F1E"/>
<path d="M651.607 84.3328C651.276 86.5877 649.684 88.1809 647.431 88.1809C645.187 88.1809 643.586 86.2563 643.586 84.022L643.906 36.8245C643.906 34.5798 645.828 32.6562 647.762 32.6562C649.993 32.6562 651.916 34.5798 651.916 36.8245L651.607 84.3328Z" fill="#93957F"/>
<path d="M760.636 162.339L644.867 65.0792L649.993 58.9752L765.776 156.235L760.636 162.339Z" fill="#93957F"/>
<path d="M656.093 71.1729H638.126V55.127H656.093V71.1729Z" fill="#676757"/>
<path d="M683.67 112.265V398.592H670.842V112.265H683.67Z" fill="#C5C6A5"/>
<path d="M683.67 398.592V535.971H670.842V398.592H683.67Z" fill="#93957F"/>
<path d="M685.283 398.592V423.95H669.241V398.592H685.283Z" fill="#676757"/>
<path d="M685.283 112.265V137.302H669.241V112.265H685.283Z" fill="#676757"/>
<path d="M671.163 107.123L687.515 87.5387L699.713 97.8231L683.35 117.397L671.163 107.123Z" fill="#676757"/>
<path fill-rule="evenodd" clip-rule="evenodd" d="M677.262 123.17C683.349 123.17 688.157 118.039 688.157 112.265C688.157 106.161 683.349 101.351 677.262 101.351C671.163 101.351 666.356 106.161 666.356 112.265C666.356 118.039 671.163 123.17 677.262 123.17Z" fill="#93957F"/>
<path d="M677.262 115.793C679.184 115.793 681.107 114.19 681.107 112.265C681.107 110.01 679.184 108.417 677.262 108.417C675.339 108.417 673.727 110.01 673.727 112.265C673.727 114.19 675.339 115.793 677.262 115.793Z" fill="#676757"/>
<path d="M685.283 284.955V309.991H669.241V284.955H685.283Z" fill="#676757"/>
<path d="M649.993 439.674L670.842 480.757H683.67L704.52 439.674L711.58 443.522L689.77 486.539L688.489 488.786H685.923H668.601H666.036L665.065 486.539L642.945 443.522L649.993 439.674Z" fill="#93957F"/>
<path d="M600.296 530.519L659.617 396.336L661.219 393.129H677.262V404.364H668.28L610.228 535.008L600.296 530.519Z" fill="#C5C6A5"/>
<path d="M661.86 479.152H692.654V490.389H661.86V479.152Z" fill="#676757"/>
<path d="M744.285 535.008L686.234 404.364H677.262V393.129H689.77H693.293L694.896 396.336L754.549 530.519L744.285 535.008Z" fill="#C5C6A5"/>
<path d="M661.86 293.625H675.339V301.642H661.86V293.625Z" fill="#676757"/>
<path d="M665.717 284.955V309.991H657.694V284.955H665.717Z" fill="#93957F"/>
<path d="M731.777 512.859C729.854 509.009 731.777 504.189 735.954 502.265C739.798 500.662 744.616 502.585 746.207 506.444L756.482 529.545C758.406 533.726 756.482 538.215 752.626 540.14C748.461 541.754 743.643 540.14 742.042 535.971L731.777 512.859Z" fill="#403C31"/>
<path d="M669.241 517.029C669.241 512.539 672.776 509.009 677.262 509.009C681.748 509.009 685.283 512.539 685.283 517.029V535.972C685.283 540.462 681.748 544 677.262 544C672.776 544 669.241 540.462 669.241 535.972V517.029Z" fill="#403C31"/>
<path d="M622.415 512.859C624.029 509.009 622.415 504.189 618.25 502.265C614.084 500.662 609.588 502.585 607.666 506.444L597.4 529.545C595.799 533.726 597.4 538.215 601.577 540.14C605.743 541.754 610.228 540.14 612.162 535.971L622.415 512.859Z" fill="#403C31"/>
<path d="M670.842 284.955V309.991H654.811V284.955H670.842Z" fill="#676757"/>
<path d="M410.106 161.376C405.295 143.716 471.361 121.887 482.586 119C493.813 115.793 561.801 101.993 566.619 119.32L590.02 206.307L433.198 248.362L410.106 161.376Z" fill="#E8E8E8"/>
<path d="M580.718 141.471L577.513 129.273C573.989 115.472 532.296 114.831 484.83 127.67C437.364 140.188 401.771 161.696 405.615 175.177L408.825 187.695C465.908 172.291 523.959 156.876 580.718 141.471Z" fill="#C5C6A5"/>
<path d="M408.825 187.695C412.35 201.176 454.043 201.818 501.508 189.3C548.974 176.46 584.573 154.952 580.718 141.471C577.203 127.991 535.825 127.029 488.359 139.868C440.573 152.708 404.975 173.894 408.825 187.695Z" fill="#93957F"/>
<path fill-rule="evenodd" clip-rule="evenodd" d="M416.52 185.451C416.84 180.63 431.91 171.318 435.121 169.084C451.8 159.773 471.682 152.708 490.282 147.565C508.883 142.754 529.412 138.905 548.654 138.905C552.499 138.905 570.784 139.547 573.026 143.396L597.721 235.203L440.893 277.247L416.52 185.771V185.451Z" fill="#EC1D26"/>
<path fill-rule="evenodd" clip-rule="evenodd" d="M416.52 185.451C416.84 180.63 431.91 171.318 435.121 169.084C451.479 159.773 471.361 152.708 489.321 147.896L490.282 147.565L519.467 256.07L440.893 277.247L416.52 185.771V185.451Z" fill="#A81D26"/>
<path fill-rule="evenodd" clip-rule="evenodd" d="M568.211 156.235C567.569 154.31 565.336 153.027 563.404 153.668C561.16 153.989 559.879 156.235 560.519 158.49L571.105 197.968C571.747 200.213 573.989 201.497 575.922 200.855C578.154 200.213 579.436 197.968 578.795 196.045L568.211 156.235Z" fill="#EF373C"/>
<path d="M575.592 143.075C575.271 141.791 573.668 140.829 572.387 141.471C571.105 141.791 570.465 143.075 570.785 144.358L577.513 168.752C577.845 170.035 579.127 171.008 580.408 170.677C581.689 170.367 582.33 169.084 582.009 167.801L575.592 143.075Z" fill="#93957F"/>
<path d="M585.213 166.829C584.253 163.942 581.369 162.017 578.154 162.98C575.271 163.621 573.346 166.829 574.31 169.725L580.408 192.827C581.369 195.724 584.253 197.649 587.457 196.686C590.353 196.045 592.274 192.827 591.302 189.94L585.213 166.829Z" fill="#C5C6A5"/>
<path d="M588.099 190.902C587.778 189.62 586.496 188.657 585.213 188.979C583.933 189.3 583.291 190.582 583.612 191.865L590.02 216.58C590.352 217.864 591.943 218.516 593.225 218.184C594.517 217.864 595.159 216.58 594.838 215.297L588.099 190.902Z" fill="#93957F"/>
<path d="M418.763 185.13C418.444 183.847 417.162 182.886 415.879 183.206C414.597 183.527 413.958 185.13 414.278 186.413L420.691 210.808C421.012 212.09 422.614 213.053 423.896 212.732C425.178 212.411 425.824 210.808 425.498 209.526L418.763 185.13Z" fill="#93957F"/>
<path d="M428.707 208.884C427.746 205.666 424.537 204.062 421.652 204.703C418.763 205.666 416.84 208.884 417.803 211.769L423.896 234.881C424.537 237.769 427.746 239.693 430.63 238.731C433.839 238.089 435.442 234.882 434.8 231.996L428.707 208.884Z" fill="#C5C6A5"/>
<path d="M431.592 232.637C431.271 231.354 429.989 230.713 428.707 231.033C427.426 231.354 426.784 232.637 427.105 233.92L433.519 258.636C433.839 259.919 435.121 260.559 436.403 260.238C437.691 259.919 438.653 258.636 438.332 257.353L431.592 232.637Z" fill="#93957F"/>
<path d="M457.252 158.8C456.931 157.517 455.645 156.876 454.364 157.207C453.081 157.517 452.44 158.8 452.761 160.083L459.174 184.809C459.815 186.092 461.096 186.734 462.384 186.413C463.665 186.092 464.306 184.809 463.985 183.527L457.252 158.8Z" fill="#93957F"/>
<path d="M467.189 182.565C466.229 179.667 463.345 177.742 460.136 178.705C457.252 179.347 455.324 182.565 456.291 185.45L462.384 208.563C463.345 211.769 466.229 213.374 469.439 212.732C472.323 211.769 473.931 208.884 473.283 205.666L467.189 182.565Z" fill="#C5C6A5"/>
<path d="M470.078 206.639C469.758 205.345 468.478 204.382 467.189 204.703C465.908 205.345 465.267 206.639 465.588 207.921L472.003 232.316C472.323 233.599 473.61 234.24 474.892 233.92C476.171 233.599 477.135 232.316 476.814 231.033L470.078 206.639Z" fill="#93957F"/>
<path d="M529.092 139.547C528.772 138.264 527.485 137.622 526.203 137.943C524.92 138.264 523.959 139.547 524.28 140.829L531.014 165.545C531.334 166.829 532.617 167.47 533.903 167.15C535.185 166.829 535.825 165.545 535.506 164.262L529.092 139.547Z" fill="#93957F"/>
<path d="M538.71 163.301C538.068 160.414 534.865 158.8 531.975 159.442C528.772 160.414 527.164 163.301 527.804 166.187L533.903 189.3C534.865 192.506 538.068 194.12 540.958 193.469C543.841 192.506 545.77 189.62 544.803 186.413L538.71 163.301Z" fill="#C5C6A5"/>
<path d="M541.918 187.375C541.6 186.092 539.997 185.451 538.71 185.771C537.427 186.092 536.786 187.375 537.107 188.658L543.841 213.053C544.161 214.335 545.449 215.297 546.731 214.976C548.012 214.335 548.654 213.053 548.333 211.77L541.918 187.375Z" fill="#93957F"/>
<path d="M605.422 232.958L602.218 221.723C598.683 207.921 557.315 207.28 509.529 220.119C462.063 232.958 426.465 254.146 430.31 267.947L433.198 279.182C490.282 263.767 548.333 248.362 605.422 232.958Z" fill="#C5C6A5"/>
<path d="M433.198 279.182C437.043 292.663 478.417 293.304 525.882 280.785C573.346 267.947 608.947 246.438 605.422 232.958C601.577 219.477 560.2 218.516 512.733 231.354C465.267 244.193 429.669 265.371 433.198 279.182Z" fill="#93957F"/>
<path d="M440.893 277.247C440.893 272.436 456.291 262.804 459.815 260.559C476.493 251.248 496.375 244.193 514.656 239.051C533.257 234.24 554.111 230.392 573.346 230.392C577.203 230.392 595.479 231.033 597.721 234.882C597.721 239.693 582.33 249.325 578.795 251.248C562.121 260.88 542.239 267.947 523.959 273.078C505.358 277.9 484.51 281.748 465.267 281.748C461.417 281.748 443.137 281.106 440.893 277.247Z" fill="#676757"/>
<path fill-rule="evenodd" clip-rule="evenodd" d="M523.959 273.078L514.656 239.051C533.257 234.24 554.111 230.392 573.346 230.392C577.203 230.392 595.479 231.033 597.721 234.881C597.721 239.693 582.33 249.325 578.795 251.248C562.121 260.88 542.239 267.946 523.959 273.078Z" fill="#403C31"/>
<path d="M575.592 450.909C573.026 447.382 567.9 446.741 564.365 449.306C560.84 452.192 560.2 457.002 562.763 460.541L576.563 478.831C579.127 482.369 584.253 483.012 587.778 480.436C591.302 477.549 591.943 472.738 589.379 469.2L575.592 450.909Z" fill="#403C31"/>
<path d="M624.029 537.574C625.95 539.819 629.475 540.462 631.719 538.537C634.282 536.614 634.923 533.086 633 530.839L587.457 470.494C585.534 467.918 582.009 467.597 579.767 469.521C577.203 471.456 576.563 474.663 578.485 477.229L624.029 537.574Z" fill="#C5C6A5"/>
<path d="M621.134 511.255C618.57 507.727 613.442 506.765 609.907 509.652C606.383 512.217 605.743 517.349 608.307 520.888L622.094 538.858C624.669 542.397 629.796 543.037 633.321 540.462C636.845 537.895 637.486 532.765 634.923 529.226L621.134 511.255Z" fill="#403C31"/>
<path d="M417.803 272.436C363.923 272.436 320.308 332.142 320.308 405.006C320.308 478.191 363.923 537.574 417.803 537.574H429.348C429.348 453.154 429.348 357.177 429.348 272.436H417.803Z" fill="#93957F"/>
<path d="M429.348 272.436C483.228 272.436 526.843 331.821 526.843 405.006C526.843 478.191 483.228 537.574 429.348 537.574C375.469 537.574 332.173 478.191 332.173 405.006C332.173 331.821 375.469 272.436 429.348 272.436Z" fill="#DCDDC7"/>
<path fill-rule="evenodd" clip-rule="evenodd" d="M429.348 529.545C379.96 529.545 340.189 474.022 340.189 405.006C340.189 336.31 379.96 280.464 429.348 280.464H564.056V529.545H429.348Z" fill="#EC1D26"/>
<path fill-rule="evenodd" clip-rule="evenodd" d="M429.348 529.545C379.96 529.545 340.189 474.022 340.189 405.006H564.056V529.545H429.348Z" fill="#A81D26"/>
<path d="M552.499 272.436C498.625 272.436 455.003 332.142 455.003 405.006C455.003 478.191 498.625 537.574 552.499 537.574H564.056C564.056 453.154 564.056 357.177 564.056 272.436H552.499Z" fill="#93957F"/>
<path d="M564.056 272.436C617.929 272.436 661.551 331.821 661.551 405.006C661.551 478.191 617.929 537.574 564.056 537.574C510.17 537.574 466.871 478.191 466.871 405.006C466.871 331.821 510.17 272.436 564.056 272.436Z" fill="#DCDDC7"/>
<path d="M564.055 529.545C613.443 529.545 653.53 473.701 653.53 405.006C653.53 336.631 613.443 280.464 564.055 280.464C514.977 280.464 474.892 336.631 474.892 405.006C474.892 473.701 514.977 529.545 564.055 529.545Z" fill="#C5C6A5"/>
<path d="M498.945 405.006C498.945 409.495 495.093 413.034 490.924 413.034C486.437 413.034 482.907 409.495 482.907 405.006C482.907 373.544 491.564 344.661 505.679 323.792C520.43 301.964 540.958 288.482 564.056 288.482C568.542 288.482 572.066 292.022 572.066 296.511C572.066 301 568.542 304.539 564.056 304.539C546.731 304.539 530.693 315.455 518.827 332.782C506.64 351.405 498.945 376.762 498.945 405.006Z" fill="#EAEBDC"/>
<path d="M576.231 281.748C619.853 289.765 653.529 342.095 653.529 405.006C653.529 468.239 619.853 520.247 576.231 528.584C612.162 509.331 637.817 461.183 637.817 405.006C637.817 349.149 612.162 301 576.231 281.748Z" fill="#93957F"/>
<path fill-rule="evenodd" clip-rule="evenodd" d="M428.066 296.511C425.824 296.511 423.896 294.908 423.896 292.663C423.896 290.418 425.824 288.482 428.066 288.482H468.799C471.04 288.482 472.965 290.418 472.965 292.663C472.965 294.908 471.04 296.511 468.799 296.511H428.066Z" fill="#EF373C"/>
<path d="M337.305 407.572C336.018 407.572 335.056 406.609 335.056 405.006C335.056 403.723 336.018 402.761 337.305 402.761H362.32C363.602 402.761 364.563 403.723 364.563 405.006C364.563 406.609 363.602 407.572 362.32 407.572H337.305Z" fill="#93957F"/>
<path d="M350.775 410.79C347.563 410.79 345.323 408.212 345.323 405.006C345.323 402.119 347.563 399.554 350.775 399.554H364.563C367.451 399.554 370.017 402.119 370.017 405.006C370.017 408.212 367.451 410.79 364.563 410.79H350.775Z" fill="#C5C6A5"/>
<path d="M361.358 326.69C360.071 326.69 359.11 325.717 359.11 324.434C359.11 323.152 360.071 321.869 361.358 321.869H386.373C387.655 321.869 388.616 323.152 388.616 324.434C388.616 325.717 387.655 326.69 386.373 326.69H361.358Z" fill="#93957F"/>
<path d="M374.828 329.896C371.617 329.896 369.055 327.33 369.055 324.434C369.055 321.227 371.617 318.662 374.828 318.662H388.297C391.504 318.662 394.07 321.227 394.07 324.434C394.07 327.33 391.504 329.896 388.297 329.896H374.828Z" fill="#C5C6A5"/>
<path d="M361.358 488.465C360.071 488.465 359.11 487.182 359.11 485.898C359.11 484.617 360.071 483.654 361.358 483.654H386.373C387.655 483.654 388.616 484.617 388.616 485.898C388.616 487.182 387.655 488.465 386.373 488.465H361.358Z" fill="#93957F"/>
<path d="M374.828 491.671C371.617 491.671 369.055 489.104 369.055 485.898C369.055 482.69 371.617 480.436 374.828 480.436H388.297C391.504 480.436 394.07 482.69 394.07 485.898C394.07 489.104 391.504 491.671 388.297 491.671H374.828Z" fill="#C5C6A5"/>
<path d="M441.536 399.554C444.746 399.554 447.308 402.119 447.308 405.006C447.308 408.212 444.746 410.79 441.536 410.79H428.066C424.857 410.79 422.614 408.212 422.614 405.006C422.614 402.119 424.857 399.554 428.066 399.554H441.536Z" fill="#C5C6A5"/>
<path d="M455.003 402.761C456.291 402.761 457.572 403.723 457.572 405.006C457.572 406.609 456.291 407.572 455.003 407.572H442.497C441.214 407.572 440.253 406.609 440.253 405.006C440.253 403.723 441.214 402.761 442.497 402.761H455.003Z" fill="#93957F"/>
<path d="M462.384 318.662C465.267 318.662 467.831 321.227 467.831 324.434C467.831 327.33 465.267 329.896 462.384 329.896H448.59C445.706 329.896 443.137 327.33 443.137 324.434C443.137 321.227 445.706 318.662 448.59 318.662H462.384Z" fill="#C5C6A5"/>
<path d="M475.533 321.869C477.135 321.869 478.096 323.152 478.096 324.434C478.096 325.717 477.135 326.69 475.533 326.69H463.345C462.063 326.69 460.777 325.717 460.777 324.434C460.777 323.152 462.063 321.869 463.345 321.869H475.533Z" fill="#93957F"/>
<path d="M462.384 480.436C465.267 480.436 467.831 482.69 467.831 485.898C467.831 489.104 465.267 491.671 462.384 491.671H448.59C445.706 491.671 443.137 489.104 443.137 485.898C443.137 482.69 445.706 480.436 448.59 480.436H462.384Z" fill="#C5C6A5"/>
<path d="M475.533 483.654C477.135 483.654 478.096 484.617 478.096 485.898C478.096 487.182 477.135 488.465 475.533 488.465H463.345C462.063 488.465 460.777 487.182 460.777 485.898C460.777 484.617 462.063 483.654 463.345 483.654H475.533Z" fill="#93957F"/>
<path d="M446.347 450.909C449.231 447.382 454.043 446.741 457.572 449.306C461.096 452.192 461.744 457.002 459.174 460.541L445.386 478.831C442.818 482.369 437.691 483.012 434.16 480.436C430.63 477.549 429.989 472.738 432.559 469.2L446.347 450.909Z" fill="#403C31"/>
<path d="M397.919 537.574C396.317 539.819 392.788 540.462 390.225 538.537C387.655 536.614 387.335 533.086 388.936 530.839L434.479 470.494C436.403 467.918 439.932 467.597 442.497 469.521C445.065 471.456 445.386 474.663 443.458 477.229L397.919 537.574Z" fill="#C5C6A5"/>
<path d="M400.804 511.255C403.692 507.727 408.504 506.765 412.029 509.652C415.558 512.217 416.199 517.349 413.631 520.888L399.843 538.858C397.28 542.397 392.146 543.037 388.616 540.462C385.092 537.895 384.451 532.765 387.014 529.226L400.804 511.255Z" fill="#403C31"/>
<path d="M564.056 436.145C576.231 436.145 586.175 422.345 586.175 405.006C586.175 387.997 576.231 374.197 564.056 374.197C551.858 374.197 541.918 387.997 541.918 405.006C541.918 422.345 551.858 436.145 564.056 436.145Z" fill="#EAEBDC"/>
<path d="M201.641 108.086C319.665 176.14 363.282 89.4745 250.068 23.9968C137.178 -41.17 83.6183 39.7216 201.641 108.086Z" fill="#C58B24"/>
<path d="M176.309 91.077C183.682 96.8506 192.019 102.313 201.641 108.086L226.015 66.0414L176.309 91.077ZM275.404 41.0049C268.029 35.2211 259.693 29.4494 250.068 23.9969L226.015 66.0414L275.404 41.0049Z" fill="#A95F1E"/>
<path d="M162.838 1.19464C151.934 3.44955 143.913 8.58191 139.427 15.6369L225.696 66.0414L162.838 1.19464ZM312.285 116.436L225.696 66.0414L289.519 131.839C300.424 129.273 308.12 123.811 312.285 116.436Z" fill="#CDA44B"/>
<path d="M218.642 62.8345C220.563 58.9752 225.696 57.6928 229.547 59.9374C233.392 62.1933 234.678 67.0027 232.429 70.8508L231.148 72.7866C228.905 76.6347 224.094 77.9189 220.242 75.6621C216.393 73.7385 215.111 68.6062 217.359 64.7581L218.642 62.8345Z" fill="#A95F1E"/>
<path d="M195.228 111.293L220.242 67.9659C222.812 63.4757 229.867 67.3247 227.299 71.814L201.962 115.472L195.228 111.293Z" fill="#93957F"/>
<path d="M227.939 112.265V398.592H215.111V112.265H227.939Z" fill="#C5C6A5"/>
<path d="M227.939 398.592V535.971H215.111V398.592H227.939Z" fill="#93957F"/>
<path d="M229.547 398.592V423.95H213.508V398.592H229.547Z" fill="#676757"/>
<path d="M229.547 112.265V137.302H213.508V112.265H229.547Z" fill="#676757"/>
<path d="M217.359 119L195.548 106.483L203.565 92.6814L225.376 105.199L217.359 119Z" fill="#676757"/>
<path d="M229.547 284.955V309.991H213.508V284.955H229.547Z" fill="#676757"/>
<path d="M255.843 443.522L233.711 486.539L232.75 488.786H210.304L209.338 486.539L187.212 443.522L194.269 439.674L215.111 480.757H227.939L248.788 439.674L255.843 443.522Z" fill="#93957F"/>
<path d="M213.508 517.029C213.508 512.539 217.039 509.009 221.524 509.009C226.015 509.009 229.547 512.539 229.547 517.029V535.972C229.547 540.462 226.015 544 221.524 544C217.039 544 213.508 540.462 213.508 535.972V517.029Z" fill="#403C31"/>
<path d="M288.557 535.008L230.508 404.364H221.524V393.129H234.037H237.562L239.164 396.336L298.497 530.519L288.557 535.008Z" fill="#C5C6A5"/>
<path d="M236.921 490.389H206.134V479.152H236.921V490.389Z" fill="#676757"/>
<path d="M144.232 530.519L203.886 396.336L205.494 393.129H221.524V404.364H212.548L154.497 535.008L144.232 530.519Z" fill="#C5C6A5"/>
<path d="M236.921 301.642H223.453V293.625H236.921V301.642Z" fill="#676757"/>
<path d="M241.092 284.955V309.991H233.071V284.955H241.092Z" fill="#93957F"/>
<path d="M276.046 512.859C274.123 509.009 276.046 504.189 280.217 502.265C284.066 500.662 288.878 502.585 290.48 506.444L300.744 529.545C302.668 533.726 300.745 538.215 296.895 540.14C292.723 541.754 287.912 540.14 286.31 535.971L276.046 512.859Z" fill="#403C31"/>
<path d="M152.575 506.444C154.176 502.585 158.989 500.662 162.838 502.265C167.004 504.189 168.932 509.009 167.004 512.859L156.745 535.971C155.139 540.14 150.331 541.754 146.16 540.14C142.31 538.215 140.387 533.726 142.31 529.545L152.575 506.444Z" fill="#403C31"/>
<path fill-rule="evenodd" clip-rule="evenodd" d="M221.524 123.17C227.618 123.17 232.429 118.039 232.429 112.265C232.429 106.161 227.618 101.351 221.524 101.351C215.431 101.351 210.625 106.161 210.625 112.265C210.625 118.039 215.431 123.17 221.524 123.17Z" fill="#93957F"/>
<path d="M221.524 115.793C223.453 115.793 225.055 114.19 225.055 112.265C225.055 110.01 223.453 108.417 221.524 108.417C219.602 108.417 217.68 110.01 217.68 112.265C217.68 114.19 219.602 115.793 221.524 115.793Z" fill="#676757"/>
<path d="M498.625 211.769C494.134 211.769 490.603 208.242 490.603 203.741C490.603 199.253 494.134 195.724 498.625 195.724H514.336C518.827 195.724 522.358 199.253 522.358 203.741C522.358 208.242 518.827 211.769 514.336 211.769H498.625Z" fill="#676757"/>
<path d="M504.077 280.464H492.852V203.741C492.852 200.855 495.414 198.289 498.625 198.289C501.508 198.289 504.077 200.855 504.077 203.741V280.464Z" fill="#C5C6A5"/>
<path d="M486.117 280.464H474.892V203.741C474.892 200.855 477.455 198.289 480.344 198.289C483.548 198.289 486.117 200.855 486.117 203.741V280.464Z" fill="#C5C6A5"/>
<path d="M480.344 195.724C484.83 195.724 488.359 199.253 488.359 203.741C488.359 208.242 484.83 211.769 480.344 211.769H438.011C433.519 211.769 429.989 208.242 429.989 203.741C429.989 199.253 433.519 195.724 438.011 195.724H480.344Z" fill="#676757"/>
<path d="M506.639 238.731H472.323V222.685H506.639V238.731Z" fill="#676757"/>
<path d="M506.639 280.464H472.323V264.407H506.639V280.464Z" fill="#93957F"/>
<path d="M283.105 161.376C278.615 143.716 344.361 121.887 355.586 119C366.812 115.793 435.121 101.993 439.613 119.32L463.025 206.307L306.518 248.362L283.105 161.376Z" fill="#E8E8E8"/>
<path d="M454.043 141.471L450.519 129.273C446.987 115.472 405.615 114.831 358.149 127.67C310.363 140.188 275.084 161.696 278.615 175.177L281.818 187.695C338.908 172.291 396.959 156.876 454.043 141.471Z" fill="#C5C6A5"/>
<path d="M281.818 187.695C285.669 201.176 327.042 201.818 374.508 189.3C421.973 176.46 457.572 154.952 454.043 141.471C450.198 127.991 408.825 127.029 361.358 139.868C313.893 152.708 278.294 173.894 281.818 187.695Z" fill="#93957F"/>
<path fill-rule="evenodd" clip-rule="evenodd" d="M289.519 185.451C290.16 180.63 304.91 171.318 308.441 169.084C325.119 159.773 345.002 152.708 363.282 147.565C381.883 142.754 402.731 138.905 421.973 138.905C425.824 138.905 444.105 139.547 446.347 143.396L470.72 235.203L314.214 277.247L289.519 185.771V185.451Z" fill="#EC1D26"/>
<path fill-rule="evenodd" clip-rule="evenodd" d="M289.519 185.451C290.16 180.63 304.91 171.318 308.441 169.084C324.798 159.773 344.361 152.708 362.64 147.896L363.282 147.565L392.467 256.07L314.214 277.247L289.519 185.771V185.451Z" fill="#A81D26"/>
<path fill-rule="evenodd" clip-rule="evenodd" d="M441.214 156.235C440.893 154.31 438.653 153.027 436.403 153.668C434.16 153.989 432.878 156.235 433.519 158.49L444.105 197.968C444.746 200.213 446.987 201.497 449.231 200.855C451.159 200.213 452.44 197.968 451.8 196.045L441.214 156.235Z" fill="#EF373C"/>
<path d="M448.59 143.075C448.27 141.791 446.987 140.829 445.706 141.471C444.425 141.791 443.458 143.075 443.779 144.358L450.519 168.752C450.838 170.035 452.119 171.008 453.401 170.677C454.683 170.367 455.645 169.084 455.003 167.801L448.59 143.075Z" fill="#93957F"/>
<path d="M458.213 166.829C457.572 163.942 454.364 162.017 451.479 162.98C448.27 163.621 446.667 166.829 447.308 169.725L453.722 192.827C454.364 195.724 457.572 197.649 460.457 196.686C463.345 196.045 465.267 192.827 464.306 189.94L458.213 166.829Z" fill="#C5C6A5"/>
<path d="M461.417 190.902C461.096 189.62 459.815 188.657 458.533 188.979C457.252 189.3 456.291 190.582 456.612 191.865L463.345 216.58C463.665 217.864 464.947 218.516 466.229 218.184C467.51 217.864 468.158 216.58 467.831 215.297L461.417 190.902Z" fill="#93957F"/>
<path d="M292.082 185.13C291.762 183.847 290.16 182.886 288.878 183.206C287.591 183.527 286.95 185.13 287.271 186.413L294.012 210.808C294.332 212.09 295.613 213.053 296.895 212.732C298.176 212.411 298.816 210.808 298.497 209.526L292.082 185.13Z" fill="#93957F"/>
<path d="M301.706 208.884C300.745 205.666 297.857 204.062 294.651 204.703C291.762 205.666 290.16 208.884 290.801 211.769L296.895 234.881C297.857 237.769 300.745 239.693 303.95 238.731C306.838 238.089 308.761 234.882 307.8 231.996L301.706 208.884Z" fill="#C5C6A5"/>
<path d="M304.589 232.637C304.27 231.354 302.988 230.713 301.706 231.033C300.424 231.354 299.778 232.637 300.099 233.92L306.518 258.636C307.158 259.919 308.441 260.559 309.722 260.238C311.003 259.919 311.645 258.636 311.324 257.353L304.589 232.637Z" fill="#93957F"/>
<path d="M330.572 158.8C330.251 157.517 328.963 156.876 327.683 157.207C326.401 157.517 325.439 158.8 325.759 160.083L332.494 184.809C332.815 186.092 334.096 186.734 335.377 186.413C336.665 186.092 337.305 184.809 336.985 183.527L330.572 158.8Z" fill="#93957F"/>
<path d="M340.189 182.565C339.229 179.667 336.344 177.742 333.455 178.705C330.251 179.347 328.644 182.565 329.284 185.45L335.377 208.563C336.344 211.769 339.549 213.374 342.438 212.732C345.323 211.769 347.244 208.884 346.283 205.666L340.189 182.565Z" fill="#C5C6A5"/>
<path d="M343.398 206.639C342.759 205.345 341.47 204.382 340.189 204.703C338.908 205.345 338.267 206.639 338.587 207.921L345.323 232.316C345.643 233.599 346.925 234.24 348.206 233.92C349.493 233.599 350.133 232.316 349.813 231.033L343.398 206.639Z" fill="#93957F"/>
<path d="M402.091 139.547C401.771 138.264 400.483 137.622 399.201 137.943C397.919 138.264 397.28 139.547 397.599 140.829L404.012 165.545C404.333 166.829 405.615 167.47 406.897 167.15C408.184 166.829 409.145 165.545 408.825 164.262L402.091 139.547Z" fill="#93957F"/>
<path d="M411.708 163.301C411.068 160.414 407.857 158.8 404.975 159.442C402.091 160.414 400.164 163.301 401.124 166.187L407.217 189.3C407.857 192.506 411.068 194.12 413.958 193.469C417.162 192.506 418.763 189.62 418.123 186.413L411.708 163.301Z" fill="#C5C6A5"/>
<path d="M414.918 187.375C414.597 186.092 413.31 185.451 412.029 185.771C410.747 186.092 409.786 187.375 410.106 188.658L416.84 213.053C417.162 214.335 418.444 215.297 419.723 214.976C421.012 214.335 421.973 213.053 421.333 211.77L414.918 187.375Z" fill="#93957F"/>
<path d="M478.417 232.958L475.533 221.723C471.682 207.921 430.31 207.28 382.843 220.119C335.377 232.958 299.778 254.146 303.309 267.947L306.518 279.182C363.282 263.767 421.333 248.362 478.417 232.958Z" fill="#C5C6A5"/>
<path d="M306.518 279.182C310.043 292.663 351.416 293.304 398.882 280.785C446.667 267.947 481.946 246.438 478.417 232.958C474.892 219.477 433.198 218.516 385.732 231.354C338.267 244.193 302.668 265.371 306.518 279.182Z" fill="#93957F"/>
<path d="M314.214 277.247C314.214 272.436 329.604 262.804 332.815 260.559C349.493 251.248 369.376 244.193 387.976 239.051C406.257 234.24 427.105 230.392 446.347 230.392C450.198 230.392 468.478 231.033 470.72 234.882C470.72 239.693 455.324 249.325 451.8 251.248C435.442 260.88 415.24 267.947 396.959 273.078C378.358 277.9 357.509 281.748 338.587 281.748C334.417 281.748 316.456 281.106 314.214 277.247Z" fill="#676757"/>
<path fill-rule="evenodd" clip-rule="evenodd" d="M396.959 273.078L387.976 239.051C406.257 234.24 427.105 230.392 446.347 230.392C450.198 230.392 468.478 231.033 470.72 234.881C470.72 239.693 455.324 249.325 451.8 251.248C435.442 260.88 415.24 267.946 396.959 273.078Z" fill="#403C31"/>
</svg>
